<?xml version="1.0" encoding="utf-8"?>
<!-- Generator: Adobe Illustrator 21.1.0, SVG Export Plug-In . SVG Version: 6.00 Build 0)  -->
<svg version="1.1" id="Layer_1" xmlns="http://www.w3.org/2000/svg" xmlns:xlink="http://www.w3.org/1999/xlink" x="0px" y="0px"
	 viewBox="0 0 90 39" style="enable-background:new 0 0 90 39;" xml:space="preserve">
<style type="text/css">
	.st0{fill:#FFFFFF;}
</style>
<g>
	<path class="st0" d="M18.6,5c-0.6-1.9-2.4-3.4-5-4c-2.7-0.7-6.2-0.5-9.8,0.4L3.6,1.5V0.4L0,1.5V36l3.6-1.1V17.5l0.2,0
		C4.9,17.3,6,17,7.1,16.7C15,14.3,19.9,9.3,18.6,5z M3.8,13.8l-0.2,0V5.2l0.1,0c2.3-0.7,4.7-1,6.8-0.9c3.1,0.1,4.5,1.1,4.7,1.9
		c0.5,1.6-2.8,5.2-9.1,7.2C5.4,13.5,4.6,13.6,3.8,13.8z"/>
	<polygon class="st0" points="35.2,30 35.2,27 10.8,34.5 10.8,38.5 14.4,37.4 14.4,36.3 31.6,30 31.6,31.1 	"/>
	<polygon class="st0" points="23.7,28.9 27.2,27.8 22.6,17.4 19.4,18.4 16.4,31 20.6,29.8 21.8,24.4 	"/>
	<polygon class="st0" points="65.1,16.8 65.1,16.8 65.1,16.8 	"/>
	<polygon class="st0" points="86.4,26.4 86.4,23.4 62,30.8 62,34.9 65.6,33.8 65.6,32.7 82.8,26.4 82.8,27.5 	"/>
	<polygon class="st0" points="74.9,25.2 78.4,24.2 73.8,13.8 70.7,14.7 67.7,27.4 71.8,26.2 73,20.8 	"/>
	<polygon class="st0" points="65.7,28 65.7,16.2 62.1,17.3 62.1,21.7 60,22.3 60,17.9 56.4,19 56.4,30.8 60,29.7 60,23.7 62.1,23.1 
		62.1,29.1 	"/>
	<polygon class="st0" points="14.5,28.6 9.3,30.2 9.3,27.6 12.4,26.7 12.4,25.2 9.3,26.2 9.3,24.4 14.5,22.8 14.5,19.8 8.2,21.7 
		5.7,22.5 5.7,34.3 9.4,33.1 14.5,31.6 	"/>
	<path class="st0" d="M53.1,21.1c-0.5-0.4-1-0.5-1.6-0.5c-0.3,0-0.5,0-0.8,0.1l-4.1,1.2c-1.2,0.3-1.9,1.4-1.9,2.6v6.1
		c0,0.9,0.4,1.7,1.1,2.2c0.7,0.5,1.6,0.7,2.4,0.4l4.1-1.2c1.2-0.3,1.9-1.4,1.9-2.6v-6.1C54.2,22.4,53.8,21.6,53.1,21.1z M50.7,30
		c0,0.3-0.2,0.5-0.4,0.6l-0.9,0.3c-0.1,0-0.1,0-0.2,0c-0.1,0-0.3,0-0.4-0.1c-0.2-0.1-0.2-0.3-0.2-0.5V24c0-0.3,0.2-0.5,0.4-0.6
		l0.9-0.3c0.2-0.1,0.4,0,0.5,0.1c0.2,0.1,0.2,0.3,0.2,0.5V30z"/>
	<path class="st0" d="M43.9,17.3c7.9-2.4,12.8-7.4,11.5-11.6c-1.1-3.5-6.1-5.2-12.5-4.1l-0.2,0V0.4L39,1.5v0.9l-0.1,0
		c-1.2,0.4-2.3,0.8-2.3,0.8c-6.4,2.7-9.9,6.9-8.8,10.6c0.7,2.2,2.9,3.7,6.2,4.3c0.6,0.1,1.2,0.1,1.8,0.2c0.2,0,0.4,0,0.7,0
		c0,0,1.1,0,2.3-0.1l0.2,0V36l3.6-1.1V17.6l0.4-0.1C43.3,17.4,43.6,17.3,43.9,17.3z M39,14.6l-0.2,0c-1.1,0.1-2.3,0.2-2.3,0.2l0,0h0
		c-0.7,0-1.4-0.1-1.9-0.1c-1.8-0.3-3.1-0.9-3.3-1.7c-0.4-1.4,1.8-3.8,5.2-5.6c0,0,1.2-0.5,2.3-1L39,6.2V14.6z M42.6,13.9V5.2l0.2,0
		c1.6-0.3,3.1-0.4,4.5-0.4c3.1,0.1,4.5,1.1,4.7,1.9c0.5,1.6-2.8,5.2-9.1,7.1L42.6,13.9z"/>
	<polygon class="st0" points="86.4,4.1 86.4,0.4 82.8,1.5 82.8,5.2 79.2,6.3 79.2,10.1 82.8,9 82.8,12.7 86.4,11.6 86.4,7.9 90,6.8 
		90,3.1 	"/>
</g>
</svg>
